<svg id="exportSVG" visibility="visible" xmlns="http://www.w3.org/2000/svg" xmlns:xlink="http://www.w3.org/1999/xlink" version="1.1" data-info="draw.ninja" data-name="draw" viewBox="0 0 300 100" width="300" height="100" style="position: fixed; top: 0px; left: 0px;"><defs id="defsExport"><filter id="filter0"><feGaussianBlur stdDeviation="0"></feGaussianBlur></filter><pattern id="patternImage" patternUnits="userSpaceOnUse" x="0" y="0" width="1" height="1" data-x="0" data-y="0" data-width="1" data-height="1" data-multx="1" data-multy="1" patternTransform="matrix(1,0,0,1,0,0)" data-transs="0" data-transf="0" data-source="patternImage" data-draw="1" fill="#B3B3B3" fill-opacity="1"></pattern><pattern id="pattern0" patternUnits="userSpaceOnUse" x="0" y="0" width="10" height="10" data-x="0" data-y="0" data-width="10" data-height="10" data-multx="1" data-multy="1" stroke="none" patternTransform="matrix(1,0,0,1,0,0)" data-transs="0" data-transf="0" data-source="Pattern 0" data-draw="1" fill="#B3B3B3" fill-opacity="1"><path transform="matrix(1,0,0,1,0,0)" d="M0 0 L5 0 L5 5 L0 5 L0 0 Z"></path></pattern><pattern id="pattern1" patternUnits="userSpaceOnUse" x="0" y="0" width="10" height="10" data-x="0" data-y="0" data-width="10" data-height="10" data-multx="1" data-multy="1" stroke="none" patternTransform="matrix(1,0,0,1,0,0)" data-transs="0" data-transf="0" data-source="Pattern 1" data-draw="1" fill="#B3B3B3" fill-opacity="1"><path transform="matrix(1,0,0,1,0,0)" d="M0 5 L5 0 L10 5 L5 10 L0 5 Z"></path></pattern><pattern id="pattern2" patternUnits="userSpaceOnUse" x="0" y="0" width="10" height="10" data-x="0" data-y="0" data-width="10" data-height="10" data-multx="1" data-multy="1" stroke="none" patternTransform="matrix(1,0,0,1,0,0)" data-transs="0" data-transf="0" data-source="Pattern 2" data-draw="1" fill="#B3B3B3" fill-opacity="1"><path transform="matrix(1,0,0,1,0,0)" d="M0 9 L5 1 L10 9 L0 9 Z"></path></pattern><pattern id="pattern3" patternUnits="userSpaceOnUse" x="0" y="0" width="10" height="10" data-x="0" data-y="0" data-width="10" data-height="10" data-multx="1" data-multy="1" stroke="none" patternTransform="matrix(1,0,0,1,0,0)" data-transs="0" data-transf="0" data-source="Pattern 3" data-draw="1" fill="#B3B3B3" fill-opacity="1"><path transform="matrix(1,0,0,1,0,0)" d="M0 5 C0 2.25 2.25 0 5 0 C7.75 0 10 2.25 10 5 C10 7.75 7.75 10 5 10 C2.25 10 0 7.75 0 5 Z"></path></pattern><pattern id="pattern4" patternUnits="userSpaceOnUse" x="0" y="0" width="10" height="10" data-x="0" data-y="0" data-width="10" data-height="10" data-multx="1" data-multy="1" stroke="none" patternTransform="matrix(1,0,0,1,0,0)" data-transs="0" data-transf="0" data-source="Pattern 4" data-draw="1" fill="#B3B3B3" fill-opacity="1"><path transform="matrix(1,0,0,1,0,0)" d="M0 5 L4 4 L5 0 L6 4 L10 5 L6 6 L5 10 L4 6 L0 5 Z"></path></pattern><pattern id="pattern5" patternUnits="userSpaceOnUse" x="0" y="0" width="10" height="10" data-x="0" data-y="0" data-width="10" data-height="10" data-multx="1" data-multy="1" stroke="none" patternTransform="matrix(1,0,0,1,0,0)" data-transs="0" data-transf="0" data-source="Pattern 5" data-draw="1" fill="#B3B3B3" fill-opacity="1"><path transform="matrix(1,0,0,1,0,0)" d="M5 10 C-5 2.75 3 -1.75 5 1 C7 -1.75 15 2.75 5 10 Z"></path></pattern><pattern id="pattern6" patternUnits="userSpaceOnUse" x="0" y="0" width="10" height="10" data-x="0" data-y="0" data-width="10" data-height="10" data-multx="1" data-multy="1" stroke="none" patternTransform="matrix(1,0,0,1,0,0)" data-transs="0" data-transf="0" data-source="Pattern 6" data-draw="1" fill="#B3B3B3" fill-opacity="1"><path transform="matrix(1,0,0,1,0,0)" d="M3 0 L7 0 L7 10 L3 10 L3 0 Z"></path></pattern><pattern id="pattern7" patternUnits="userSpaceOnUse" x="0" y="0" width="10" height="10" data-x="0" data-y="0" data-width="10" data-height="10" data-multx="1" data-multy="1" stroke="none" patternTransform="matrix(1,0,0,1,0,0)" data-transs="0" data-transf="0" data-source="Pattern 7" data-draw="1" fill="#B3B3B3" fill-opacity="1"><path transform="matrix(1,0,0,1,0,0)" d="M10 3 L10 7 L0 7 L0 3 L10 3 Z"></path></pattern><pattern id="pattern8" patternUnits="userSpaceOnUse" x="0" y="0" width="10" height="10" data-x="0" data-y="0" data-width="10" data-height="10" data-multx="1" data-multy="1" stroke="none" patternTransform="matrix(1,0,0,1,0,0)" data-transs="0" data-transf="0" data-source="Pattern 8" data-draw="1" fill="#B3B3B3" fill-opacity="1"><path transform="matrix(1,0,0,1,0,0)" d="M0 10 L3 3 L10 0 L7 7 L0 10 Z"></path></pattern><pattern id="pattern9" patternUnits="userSpaceOnUse" x="0" y="0" width="10" height="10" data-x="0" data-y="0" data-width="10" data-height="10" data-multx="1" data-multy="1" stroke="none" patternTransform="matrix(1,0,0,1,0,0)" data-transs="0" data-transf="0" data-source="Pattern 9" data-draw="1" fill="#B3B3B3" fill-opacity="1"><path transform="matrix(1,0,0,1,0,0)" d="M0 4 L10 4 L10 6 L0 6 L0 4 Z M4 10 L4 0 L6 0 L6 10 L4 10 Z"></path></pattern><linearGradient id="linearSystem" gradientUnits="objectBoundingBox" x1="0%" y1="50%" x2="100%" y2="50%" spreadMethod="pad"><stop offset="50%" stop-color="#D0D0D0" stop-opacity="1"></stop><stop offset="100%" stop-color="transparent" stop-opacity="1"></stop></linearGradient><linearGradient id="linearSystem1" gradientUnits="objectBoundingBox" x1="0%" y1="50%" x2="100%" y2="50%" spreadMethod="pad"><stop offset="30%" stop-color="#D0D0D0" stop-opacity="1"></stop><stop offset="100%" stop-color="transparent" stop-opacity="1"></stop></linearGradient><linearGradient id="linearSystem2" gradientUnits="objectBoundingBox" x1="0%" y1="50%" x2="50%" y2="50%" spreadMethod="repeat"><stop offset="30%" stop-color="#D0D0D0" stop-opacity="1"></stop><stop offset="100%" stop-color="transparent" stop-opacity="1"></stop></linearGradient><linearGradient id="linearSystem3" gradientUnits="objectBoundingBox" x1="0%" y1="50%" x2="50%" y2="50%" spreadMethod="reflect"><stop offset="30%" stop-color="#D0D0D0" stop-opacity="1"></stop><stop offset="100%" stop-color="transparent" stop-opacity="1"></stop></linearGradient><radialGradient id="radialSystem" gradientUnits="objectBoundingBox" r="0.5" cx="0.5" fx="0.5" cy="0.5" fy="0.5" spreadMethod="pad"><stop offset="50%" stop-color="#D0D0D0" stop-opacity="1"></stop><stop offset="100%" stop-color="transparent" stop-opacity="1"></stop></radialGradient><pattern id="patternSystem" patternUnits="userSpaceOnUse" x="0" y="0" width="6" height="8"><path stroke="#D0D0D0" stroke-width="5" fill="none" d="M0 0 L0 10"></path></pattern><linearGradient id="linear0" gradientUnits="objectBoundingBox" x1="0%" y1="50%" x2="100%" y2="50%" spreadMethod="pad"><stop offset="0%" stop-color="#FF8000" stop-opacity="1"></stop><stop offset="100%" stop-color="#FFFF00" stop-opacity="1"></stop></linearGradient><linearGradient id="linear1" gradientUnits="objectBoundingBox" x1="0%" y1="50%" x2="100%" y2="50%" spreadMethod="pad"><stop offset="0%" stop-color="#FFFF00" stop-opacity="1"></stop><stop offset="100%" stop-color="#FF8000" stop-opacity="1"></stop></linearGradient><linearGradient id="linearImport" gradientUnits="objectBoundingBox" x1="0%" y1="50%" x2="100%" y2="50%" spreadMethod="pad"><stop offset="0%" stop-color="#FFFFFF" stop-opacity="0.1"></stop><stop offset="100%" stop-color="#000000" stop-opacity="0.1"></stop></linearGradient><radialGradient id="radial0" gradientUnits="objectBoundingBox" r="0.5" cx="0.5" fx="0.5" cy="0.5" fy="0.5" spreadMethod="pad"><stop offset="0%" stop-color="#FF8000" stop-opacity="1"></stop><stop offset="100%" stop-color="#FFFF00" stop-opacity="1"></stop></radialGradient><radialGradient id="radial1" gradientUnits="objectBoundingBox" r="0.5" cx="0.5" fx="0.5" cy="0.5" fy="0.5" spreadMethod="pad"><stop offset="0%" stop-color="#FFFF00" stop-opacity="1"></stop><stop offset="100%" stop-color="#FF8000" stop-opacity="1"></stop></radialGradient><radialGradient id="radialImport" gradientUnits="objectBoundingBox" r="0.5" cx="0.5" fx="0.5" cy="0.5" fy="0.5" spreadMethod="pad"><stop offset="0%" stop-color="#FFFFFF" stop-opacity="0.1"></stop><stop offset="100%" stop-color="#000000" stop-opacity="0.1"></stop></radialGradient><radialGradient id="radial2" gradientUnits="objectBoundingBox" r="0.88" cx="0.5" fx="0.5" cy="0.5" fy="0.5" spreadMethod="repeat"><stop offset="0%" stop-color="#FF0000" stop-opacity="1"></stop><stop offset="100%" stop-color="#666666" stop-opacity="1"></stop></radialGradient><linearGradient id="linear3" gradientUnits="objectBoundingBox" x1="50%" y1="100%" x2="52.85%" y2="0.08%" spreadMethod="pad"><stop offset="0%" stop-color="#FFFF00" stop-opacity="1"></stop><stop offset="100%" stop-color="#00FF80" stop-opacity="1"></stop></linearGradient><linearGradient id="linear4" gradientUnits="objectBoundingBox" x1="0.02%" y1="51.32%" x2="99.96%" y2="51.97%" spreadMethod="pad"><stop offset="0%" stop-color="#0080FF" stop-opacity="1"></stop><stop offset="100%" stop-color="#00FFFF" stop-opacity="1"></stop></linearGradient><linearGradient id="linear5" gradientUnits="objectBoundingBox" x1="6.94%" y1="24.59%" x2="91.72%" y2="77.55%" spreadMethod="pad"><stop offset="0%" stop-color="#FFFF80" stop-opacity="1"></stop><stop offset="100%" stop-color="#FF0000" stop-opacity="1"></stop></linearGradient><filter id="filter1"><feGaussianBlur stdDeviation="0"></feGaussianBlur></filter></defs><rect id="pageExport" x="0" y="0" width="300" height="100" fill="none" fill-opacity="0" stroke="none" stroke-width="0"></rect><g id="objectsExport" visibility="visible"><path id="path114" visibility="visible" stroke="#B3B3B3" stroke-width="0" stroke-opacity="1" stroke-linecap="round" stroke-linejoin="round" stroke-dasharray="none" marker-start="none" marker-end="none" fill="#FFFFFF" fill-rule="evenodd" fill-opacity="1" data-name="curve" data-title="curve" deg="0" data-sw="0" data-grad="0" data-group="0" data-edit="1" filter="none" d="M65.857 55.929 C65.857 55.929 67 55.929 67.571 55.929 C68.143 55.929 69.286 56.071 69.857 56.143 C70.429 56.214 71.571 56.5 72.143 56.643 C72.714 56.786 73.714 56.929 74.357 57 C75 57.071 76.143 57.5 76.714 57.714 C77.286 57.929 78.429 58.071 79 58.143 C79.571 58.214 80.714 58.214 81.286 58.214 C81.857 58.214 83.143 58.214 83.786 58.214 C84.429 58.214 85.429 57.929 86.071 57.786 C86.714 57.643 87.857 57.357 88.429 57.214 C89 57.071 90 56.643 90.643 56.429 C91.286 56.214 92.429 55.5 93 55.143 C93.571 54.786 94 53.786 94.214 53.143 C94.429 52.5 94.714 51.5 94.857 50.857 C95 50.214 94.714 49.214 94.571 48.571 C94.429 47.929 93.429 47.786 92.786 47.714 C92.143 47.643 91.143 47.643 90.5 47.643 C89.857 47.643 88.857 47.643 88.214 47.643 C87.571 47.643 86.429 47.929 85.857 48.071 C85.286 48.214 84.143 48.357 83.571 48.429 C83 48.5 81.857 48.643 81.286 48.714 C80.714 48.786 79.714 48.929 79.071 49.143 C78.429 49.357 77.429 49.357 76.786 49.357 C76.143 49.357 75.143 49.357 74.357 49.357 C73.571 49.357 72.429 49.357 71.857 49.357 C71.286 49.357 70.286 49.5 69.643 49.571 C69 49.643 68 49.786 67.357 49.857 C66.714 49.929 65.571 49.929 65.571 49.929 " data-centerx="80.234" data-centery="52.929"></path><path id="path113" visibility="visible" stroke="#B3B3B3" stroke-width="0" stroke-opacity="1" stroke-linecap="round" stroke-linejoin="round" stroke-dasharray="none" marker-start="none" marker-end="none" fill="#FFFFFF" fill-rule="evenodd" fill-opacity="1" data-name="curve" data-title="curve" deg="0" data-sw="0" data-grad="0" data-group="0" data-edit="1" filter="none" d="M53.857 46.786 C53.857 46.786 54.857 46.786 55.786 46.786 C56.715 46.786 57.857 47.071 58.429 47.214 C59 47.357 60 47.786 60.643 48 C61.286 48.214 62.429 48.929 63 49.286 C63.572 49.643 64.715 50.643 65.286 51.143 C65.857 51.643 66 52.643 66.072 53.286 C66.143 53.929 66.286 54.929 66.357 55.571 C66.429 56.214 66.715 57.214 66.857 57.857 C67 58.5 66 59.643 65.5 60.214 C65 60.786 64.572 61.929 64.357 62.5 C64.143 63.071 63.286 64.214 62.857 64.786 C62.429 65.357 61.857 66.357 61.572 67 C61.286 67.643 60.715 68.643 60.429 69.286 C60.143 69.929 59.715 70.929 59.5 71.571 C59.286 72.214 58.857 73.214 58.643 73.857 C58.429 74.5 57.715 75.643 57.357 76.214 C57 76.786 56.429 77.929 56.143 78.5 C55.857 79.071 55.429 80.071 55.215 80.714 C55 81.357 53.857 82.071 53.286 82.429 C52.715 82.786 51.572 81.929 51 81.5 C50.429 81.071 49.429 80.214 48.786 79.643 C48.143 79.071 47.429 77.929 47.072 77.357 C46.715 76.786 46.429 75.786 46.286 75.143 C46.143 74.5 46.715 73.5 47 72.857 C47.286 72.214 47.857 71.071 48.143 70.5 C48.429 69.929 49.286 68.929 49.715 68.286 C50.143 67.643 50.715 66.643 51 66 C51.286 65.357 51.857 64.357 52.143 63.714 C52.429 63.071 52.715 62.071 53 61.429 C53.286 60.786 53.572 59.643 53.715 59.071 C53.857 58.5 54.429 57.357 54.715 56.786 C55 56.214 55.715 55.214 56.072 54.571 C56.429 53.929 56.429 52.786 56.429 52.214 C56.429 51.643 55.572 50.643 55.143 50 C54.715 49.357 53.857 47.929 53.857 47.929 " data-centerx="56.567" data-centery="64.65"></path><path id="path102" visibility="visible" stroke="#B3B3B3" stroke-width="1" stroke-opacity="1" stroke-linecap="round" stroke-linejoin="round" stroke-dasharray="none" marker-start="none" marker-end="none" fill="#FF0000" fill-rule="evenodd" fill-opacity="1" data-name="curve" data-title="curve" deg="0" data-sw="1" data-grad="0" data-group="0" data-edit="1" filter="none" d="M54.8 56.8 C54.8 56.8 54.8 57.4 54.8 57.7 C54.8 58 54.6 58.5 54.5 58.85 C54.4 59.2 54.2 59.8 54.1 60.1 C54 60.4 53.7 61 53.55 61.3 C53.4 61.6 53.1 62.1 52.95 62.45 C52.8 62.8 53.3 63.4 53.55 63.7 C53.8 64 54.3 64.5 54.65 64.85 C55 65.2 55.5 65.7 55.85 65.95 C56.2 66.2 56.8 66.7 57.1 66.95 C57.4 67.2 58 67.7 58.3 67.95 C58.6 68.2 59.1 67.6 59.35 67.3 C59.6 67 60.1 66.5 60.45 66.25 C60.8 66 60.9 65.4 60.95 65.1 C61 64.8 61.4 64.2 61.6 63.9 C61.8 63.6 62 63.1 62.1 62.75 C62.2 62.4 62.5 61.9 62.65 61.55 C62.8 61.2 62.2 61.1 61.9 61.05 C61.6 61 61 60.7 60.7 60.55 C60.4 60.4 59.8 60.1 59.5 59.95 C59.2 59.8 58.7 59.3 58.35 59.05 C58 58.8 57.5 58.5 57.05 58.25 C56.6 58 55.8 57.2 55.8 57.2 " data-centerx="57.798" data-centery="62.405"></path><path id="path103" visibility="visible" stroke="#B3B3B3" stroke-width="0" stroke-opacity="1" stroke-linecap="round" stroke-linejoin="round" stroke-dasharray="none" marker-start="none" marker-end="none" fill="#FF0000" fill-rule="evenodd" fill-opacity="1" data-name="curve" data-title="curve" deg="0" data-sw="0" data-grad="0" data-group="0" data-edit="1" filter="none" d="M50 69.2 C50 69.2 49.5 69.6 49.15 69.8 C48.8 70 48.5 70.6 48.35 70.9 C48.2 71.2 48.1 71.8 48.05 72.1 C48 72.4 47.8 72.9 47.7 73.25 C47.6 73.6 47.4 74.2 47.3 74.5 C47.2 74.8 47.3 75.4 47.35 75.7 C47.4 76 47.4 76.5 47.5 76.85 C47.6 77.2 48.2 77.7 48.5 77.95 C48.8 78.2 49.3 78.6 49.65 78.8 C50 79 50.5 79.6 50.75 79.9 C51 80.2 51.6 80.5 51.9 80.65 C52.2 80.8 52.8 80.8 53.1 80.8 C53.4 80.8 53.8 80.2 54 79.9 C54.2 79.6 54.3 79.1 54.35 78.75 C54.4 78.4 54.7 77.9 54.85 77.55 C55 77.2 55.3 76.7 55.45 76.35 C55.6 76 55.6 75.4 55.6 75.1 C55.6 74.8 55 74.3 54.7 74.05 C54.4 73.8 53.8 73.3 53.5 73.05 C53.2 72.8 52.7 72.3 52.35 72.05 C52 71.8 51.5 71.2 51.25 70.9 C51 70.6 50.8 70.4 50.8 70.4 " data-centerx="51.429" data-centery="75"></path><path id="path100" visibility="visible" stroke="#B3B3B3" stroke-width="1" stroke-opacity="1" stroke-linecap="round" stroke-linejoin="round" stroke-dasharray="none" marker-start="none" marker-end="none" fill="#FF0000" fill-rule="evenodd" fill-opacity="1" data-name="curve" data-title="curve" deg="0" data-sw="1" data-grad="0" data-group="0" data-edit="1" filter="none" d="M84 52.2 C84 52.2 83.9 53.2 83.75 53.8 C83.6 54.4 83.3 55.4 83.15 56 C83 56.6 84 56.5 84.6 56.35 C85.2 56.2 86.3 56 86.85 55.9 C87.4 55.8 88.4 55.9 89 55.95 C89.6 56 90.6 55.2 91.2 54.8 C91.8 54.4 92.2 53.3 92.4 52.75 C92.6 52.2 93.3 51.1 93.65 50.55 C94 50 94.4 48.9 94.6 48.35 C94.8 47.8 93.7 47.9 93.15 47.95 C92.6 48 91.5 48.1 90.95 48.15 C90.4 48.2 89.4 48.3 88.8 48.35 C88.2 48.4 87.1 48.8 86.55 49 C86 49.2 85.2 50.3 84.8 50.85 C84.4 51.4 83.6 52.6 83.6 52.6 " data-centerx="88.879" data-centery="52.187"></path><path id="path101" visibility="visible" stroke="#B3B3B3" stroke-width="1" stroke-opacity="1" stroke-linecap="round" stroke-linejoin="round" stroke-dasharray="none" marker-start="none" marker-end="none" fill="#FF0000" fill-rule="evenodd" fill-opacity="1" data-name="curve" data-title="curve" deg="0" data-sw="1" data-grad="0" data-group="0" data-edit="1" filter="none" d="M74.4 54.8 C74.4 54.8 74.4 55.8 74.4 56.4 C74.4 57 73.3 56.9 72.75 56.85 C72.2 56.8 71.2 56.6 70.6 56.5 C70 56.4 69 56.5 68.4 56.55 C67.8 56.6 66.8 56.7 66.2 56.75 C65.6 56.8 65 55.7 64.7 55.15 C64.4 54.6 64.4 53.5 64.4 52.95 C64.4 52.4 64.5 51.3 64.55 50.75 C64.6 50.2 65.7 50 66.25 49.9 C66.8 49.8 67.8 49.8 68.4 49.8 C69 49.8 70 49.8 70.6 49.8 C71.2 49.8 72.2 49.9 72.8 49.95 C73.4 50 74.5 50.1 75.05 50.15 C75.6 50.2 75.2 51.2 75 51.8 C74.8 52.4 74.9 53.5 74.95 54.05 C75 54.6 74 54.2 74 54.2 " data-centerx="69.864" data-centery="53.344"></path><g id="group0" visibility="visible" stroke="#000000" stroke-width="2" stroke-opacity="1" stroke-dasharray="none" fill="none" fill-opacity="1" data-name="group" data-title="text" deg="0" data-edit="1" data-centerx="46.05" data-centery="88.25"><text id="text1" visibility="visible" font-family="Verdana" font-size="12" font-weight="normal" font-style="normal" transform="matrix(1,0,0,1,-533,-186)" stroke="#E6E6E6" stroke-width="0" stroke-opacity="1" stroke-dasharray="none" fill="#CCCCCC" fill-opacity="1" data-name="text" data-title="text" deg="0" data-sw="0" data-group="group0" data-trans="translate(-570,-360) matrix(1,0,0,1,37,174)" data-edit="1" filter="none" x="562" y="279" data-centerx="-294.422" data-centery="-179">I love</text></g><g id="group2" visibility="visible" stroke="#000000" stroke-width="NaN" stroke-opacity="1" stroke-dasharray="none" fill="none" fill-opacity="1" data-name="group" data-title="text" deg="0" data-edit="1" data-centerx="253.01" data-centery="87.98"><text id="text3" visibility="visible" font-family="Verdana" font-size="10" font-weight="normal" font-style="normal" transform="matrix(1.123,0,0,1.136,-532.258,-265.5)" stroke="#E6E6E6" stroke-width="0" stroke-opacity="1" stroke-dasharray="none" fill="#CCCCCC" fill-opacity="1" data-name="text" data-title="text" deg="0" data-sw="0" data-group="group2" data-trans="translate(-570,-360) matrix(1.123,0,0,1.136,37.742,94.5)" data-edit="1" filter="none" x="663" y="315" data-centerx="125.396" data-centery="-48.182">KD/IT_SOFTⅢ</text></g><path id="path5" visibility="visible" stroke="#E6E6E6" stroke-width="0" stroke-opacity="1" stroke-linecap="round" stroke-linejoin="round" stroke-dasharray="none" marker-start="none" marker-end="none" fill="url(#linear3)" fill-rule="evenodd" fill-opacity="1" data-name="curve" data-title="curve" deg="0" data-sw="0" data-grad="0" data-group="0" data-edit="1" filter="none" d="M151 47 C151 40.95 155.95 36 162 36 C168.05 36 173 40.95 173 47 C173 53.05 168.05 58 162 58 C155.95 58 151 53.05 151 47 Z " data-centerx="162" data-centery="47"></path><path id="path10" visibility="visible" stroke="#E6E6E6" stroke-width="0" stroke-opacity="1" stroke-linecap="round" stroke-linejoin="round" stroke-dasharray="none" marker-start="none" marker-end="none" fill="url(#linear4)" fill-rule="evenodd" fill-opacity="1" data-name="curve" data-title="curve" deg="0" data-sw="0" data-grad="0" data-group="0" data-edit="1" filter="none" d="M179 47 C179 40.95 183.95 36 190 36 C196.05 36 201 40.95 201 47 C201 53.05 196.05 58 190 58 C183.95 58 179 53.05 179 47 Z " data-centerx="190" data-centery="47"></path><path id="path11" visibility="visible" stroke="#E6E6E6" stroke-width="0" stroke-opacity="1" stroke-linecap="round" stroke-linejoin="round" stroke-dasharray="none" marker-start="none" marker-end="none" fill="url(#linear5)" fill-rule="evenodd" fill-opacity="1" data-name="curve" data-title="curve" deg="0" data-sw="0" data-grad="0" data-group="0" data-edit="1" filter="none" d="M207 47 C207 40.95 211.95 36 218 36 C224.05 36 229 40.95 229 47 C229 53.05 224.05 58 218 58 C211.95 58 207 53.05 207 47 Z " data-centerx="218" data-centery="47"></path><path id="path37" visibility="visible" stroke="#B3B3B3" stroke-width="1" stroke-opacity="1" stroke-linecap="round" stroke-linejoin="round" stroke-dasharray="none" marker-start="none" marker-end="none" fill="none" fill-rule="evenodd" fill-opacity="1" data-name="curve" data-title="curve" deg="0" data-sw="1" data-grad="0" data-group="0" data-edit="1" filter="none" d="M61 8 C61 8 58.5 13 56.75 16 C55 19 54 22 54 22 " data-centerx="57.5" data-centery="15"></path><path id="path38" visibility="visible" stroke="#B3B3B3" stroke-width="1" stroke-opacity="1" stroke-linecap="round" stroke-linejoin="round" stroke-dasharray="none" marker-start="none" marker-end="none" fill="none" fill-rule="evenodd" fill-opacity="1" data-name="curve" data-title="curve" deg="0" data-sw="1" data-grad="0" data-group="0" data-edit="1" filter="none" d="M61 8 C61 8 63.5 13.5 64.75 16.25 C66 19 67 21 67 21 " data-centerx="64" data-centery="14.5"></path><path id="path39" visibility="visible" stroke="#B3B3B3" stroke-width="1" stroke-opacity="1" stroke-linecap="round" stroke-linejoin="round" stroke-dasharray="none" marker-start="none" marker-end="none" fill="none" fill-rule="evenodd" fill-opacity="1" data-name="curve" data-title="curve" deg="0" data-sw="1" data-grad="0" data-group="0" data-edit="1" filter="none" d="M67 21 C67 21 72.5 21 75.25 21 C78 21 81 21 81 21 " data-centerx="74" data-centery="21"></path><path id="path40" visibility="visible" stroke="#B3B3B3" stroke-width="1" stroke-opacity="1" stroke-linecap="round" stroke-linejoin="round" stroke-dasharray="none" marker-start="none" marker-end="none" fill="none" fill-rule="evenodd" fill-opacity="1" data-name="curve" data-title="curve" deg="0" data-sw="1" data-grad="0" data-group="0" data-edit="1" filter="none" d="M87 6 C87 6 85 11 84 14 C83 17 82 20 82 20 " data-centerx="84.5" data-centery="13"></path><path id="path41" visibility="visible" stroke="#B3B3B3" stroke-width="1" stroke-opacity="1" stroke-linecap="round" stroke-linejoin="round" stroke-dasharray="none" marker-start="none" marker-end="none" fill="none" fill-rule="evenodd" fill-opacity="1" data-name="curve" data-title="curve" deg="0" data-sw="1" data-grad="0" data-group="0" data-edit="1" filter="none" d="M87 6 C87 6 90 11 91.5 14 C93 17 94 21 94 21 " data-centerx="90.5" data-centery="13.5"></path><path id="path43" visibility="visible" stroke="#B3B3B3" stroke-width="1" stroke-opacity="1" stroke-linecap="round" stroke-linejoin="round" stroke-dasharray="none" marker-start="none" marker-end="none" fill="none" fill-rule="evenodd" fill-opacity="1" data-name="curve" data-title="curve" deg="0" data-sw="1" data-grad="0" data-group="0" data-edit="1" filter="none" d="M51 25 C51 25 49.5 30.5 48.75 33.25 C48 36 50.5 41.5 51.75 44.25 C53 47 58.5 48.5 61.25 49.25 C64 50 69 50 72 50 C75 50 80.5 49.5 83.25 49.25 C86 49 91.5 48 94.25 47.5 C97 47 99.5 42 100.75 39 C102 36 100 31 99 28 C98 25 97 25 97 25 " data-centerx="74.88" data-centery="37.5"></path><path id="path44" visibility="visible" stroke="#CCCCCC" stroke-width="1" stroke-opacity="1" stroke-linecap="round" stroke-linejoin="round" stroke-dasharray="none" marker-start="none" marker-end="none" fill="none" fill-rule="evenodd" fill-opacity="1" data-name="curve" data-title="curve" deg="0" data-sw="1" data-grad="0" data-group="0" data-edit="1" filter="none" d="M52 34 C52 34 47 34.5 44 34.75 C41 35 41 35 41 35 " data-centerx="46.5" data-centery="34.5"></path><path id="path45" visibility="visible" stroke="#B3B3B3" stroke-width="1" stroke-opacity="1" stroke-linecap="round" stroke-linejoin="round" stroke-dasharray="none" marker-start="none" marker-end="none" fill="none" fill-rule="evenodd" fill-opacity="1" data-name="curve" data-title="curve" deg="0" data-sw="1" data-grad="0" data-group="0" data-edit="1" filter="none" d="M53 37 C53 37 48 38.5 45 39.25 C42 40 42 40 42 40 " data-centerx="47.5" data-centery="38.5"></path><path id="path46" visibility="visible" stroke="#B3B3B3" stroke-width="1" stroke-opacity="1" stroke-linecap="round" stroke-linejoin="round" stroke-dasharray="none" marker-start="none" marker-end="none" fill="none" fill-rule="evenodd" fill-opacity="1" data-name="curve" data-title="curve" deg="0" data-sw="1" data-grad="0" data-group="0" data-edit="1" filter="none" d="M53 40 C53 40 44 45 44 45 " data-centerx="48.5" data-centery="42.5"></path><path id="path47" visibility="visible" stroke="#B3B3B3" stroke-width="1" stroke-opacity="1" stroke-linecap="round" stroke-linejoin="round" stroke-dasharray="none" marker-start="none" marker-end="none" fill="none" fill-rule="evenodd" fill-opacity="1" data-name="curve" data-title="curve" deg="0" data-sw="1" data-grad="0" data-group="0" data-edit="1" filter="none" d="M94 32 C94 32 103 30 103 30 " data-centerx="98.5" data-centery="31"></path><path id="path51" visibility="visible" stroke="#B3B3B3" stroke-width="1" stroke-opacity="1" stroke-linecap="round" stroke-linejoin="round" stroke-dasharray="none" marker-start="none" marker-end="none" fill="none" fill-rule="evenodd" fill-opacity="1" data-name="curve" data-title="curve" deg="0" data-sw="1" data-grad="0" data-group="0" data-edit="1" filter="none" d="M94 36 C94 36 99 36 102 36 C105 36 104 36 104 36 " data-centerx="99.08" data-centery="36"></path><path id="path52" visibility="visible" stroke="#B3B3B3" stroke-width="1" stroke-opacity="1" stroke-linecap="round" stroke-linejoin="round" stroke-dasharray="none" marker-start="none" marker-end="none" fill="none" fill-rule="evenodd" fill-opacity="1" data-name="curve" data-title="curve" deg="0" data-sw="1" data-grad="0" data-group="0" data-edit="1" filter="none" d="M93 39 C93 39 103 41 103 41 " data-centerx="98" data-centery="40"></path><path id="path53" visibility="visible" stroke="#B3B3B3" stroke-width="1" stroke-opacity="1" stroke-linecap="round" stroke-linejoin="round" stroke-dasharray="none" marker-start="none" marker-end="none" fill="none" fill-rule="evenodd" fill-opacity="1" data-name="curve" data-title="curve" deg="0" data-sw="1" data-grad="0" data-group="0" data-edit="1" filter="none" d="M57 21 C57 21 61 16 61 16 " data-centerx="59" data-centery="18.5"></path><path id="path54" visibility="visible" stroke="#B3B3B3" stroke-width="1" stroke-opacity="1" stroke-linecap="round" stroke-linejoin="round" stroke-dasharray="none" marker-start="none" marker-end="none" fill="none" fill-rule="evenodd" fill-opacity="1" data-name="curve" data-title="curve" deg="0" data-sw="1" data-grad="0" data-group="0" data-edit="1" filter="none" d="M63 20 C63 20 61 17 61 17 " data-centerx="62" data-centery="18.5"></path><path id="path55" visibility="visible" stroke="#B3B3B3" stroke-width="1" stroke-opacity="1" stroke-linecap="round" stroke-linejoin="round" stroke-dasharray="none" marker-start="none" marker-end="none" fill="none" fill-rule="evenodd" fill-opacity="1" data-name="curve" data-title="curve" deg="0" data-sw="1" data-grad="0" data-group="0" data-edit="1" filter="none" d="M84 19 C84 19 87 14 87 14 " data-centerx="85.5" data-centery="16.5"></path><path id="path56" visibility="visible" stroke="#B3B3B3" stroke-width="1" stroke-opacity="1" stroke-linecap="round" stroke-linejoin="round" stroke-dasharray="none" marker-start="none" marker-end="none" fill="none" fill-rule="evenodd" fill-opacity="1" data-name="curve" data-title="curve" deg="0" data-sw="1" data-grad="0" data-group="0" data-edit="1" filter="none" d="M87 14 C87 14 89 19 89 19 " data-centerx="88" data-centery="16.5"></path><path id="path57" visibility="visible" stroke="#B3B3B3" stroke-width="1" stroke-opacity="1" stroke-linecap="round" stroke-linejoin="round" stroke-dasharray="none" marker-start="none" marker-end="none" fill="none" fill-rule="evenodd" fill-opacity="1" data-name="curve" data-title="curve" deg="0" data-sw="1" data-grad="0" data-group="0" data-edit="1" filter="none" d="M67 27 C67 27 67 34 67 34 " data-centerx="67" data-centery="30.5"></path><path id="path59" visibility="visible" stroke="#B3B3B3" stroke-width="1" stroke-opacity="1" stroke-linecap="round" stroke-linejoin="round" stroke-dasharray="none" marker-start="none" marker-end="none" fill="none" fill-rule="evenodd" fill-opacity="1" data-name="curve" data-title="curve" deg="0" data-sw="1" data-grad="0" data-group="0" data-edit="1" filter="none" d="M82 26 C82 26 82 33 82 33 " data-centerx="82" data-centery="29.5"></path><path id="path60" visibility="visible" stroke="#B3B3B3" stroke-width="1" stroke-opacity="1" stroke-linecap="round" stroke-linejoin="round" stroke-dasharray="none" marker-start="none" marker-end="none" fill="none" fill-rule="evenodd" fill-opacity="1" data-name="curve" data-title="curve" deg="0" data-sw="1" data-grad="0" data-group="0" data-edit="1" filter="none" d="M73 35 C73 35 77 35 77 35 " data-centerx="75" data-centery="35"></path><path id="path61" visibility="visible" stroke="#B3B3B3" stroke-width="1" stroke-opacity="1" stroke-linecap="round" stroke-linejoin="round" stroke-dasharray="none" marker-start="none" marker-end="none" fill="none" fill-rule="evenodd" fill-opacity="1" data-name="curve" data-title="curve" deg="0" data-sw="1" data-grad="0" data-group="0" data-edit="1" filter="none" d="M78 35 C78 35 75 39 75 39 " data-centerx="76.5" data-centery="37"></path><path id="path62" visibility="visible" stroke="#B3B3B3" stroke-width="1" stroke-opacity="1" stroke-linecap="round" stroke-linejoin="round" stroke-dasharray="none" marker-start="none" marker-end="none" fill="none" fill-rule="evenodd" fill-opacity="1" data-name="curve" data-title="curve" deg="0" data-sw="1" data-grad="0" data-group="0" data-edit="1" filter="none" d="M74 39 C74 39 73 36 73 36 " data-centerx="73.5" data-centery="37.5"></path><path id="path75" visibility="visible" stroke="#B3B3B3" stroke-width="1" stroke-opacity="1" stroke-linecap="round" stroke-linejoin="round" stroke-dasharray="none" marker-start="none" marker-end="none" fill="none" fill-rule="evenodd" fill-opacity="1" data-name="curve" data-title="curve" deg="0" data-sw="1" data-grad="0" data-group="0" data-edit="1" filter="none" d="M96 47 C96 47 91 56 91 56 " data-centerx="93.5" data-centery="51.5"></path><path id="path76" visibility="visible" stroke="#B3B3B3" stroke-width="1" stroke-opacity="1" stroke-linecap="round" stroke-linejoin="round" stroke-dasharray="none" marker-start="none" marker-end="none" fill="none" fill-rule="evenodd" fill-opacity="1" data-name="curve" data-title="curve" deg="0" data-sw="1" data-grad="0" data-group="0" data-edit="1" filter="none" d="M54 47 C54 47 58 55 58 55 " data-centerx="56" data-centery="51"></path><path id="path77" visibility="visible" stroke="#B3B3B3" stroke-width="1" stroke-opacity="1" stroke-linecap="round" stroke-linejoin="round" stroke-dasharray="none" marker-start="none" marker-end="none" fill="none" fill-rule="evenodd" fill-opacity="1" data-name="curve" data-title="curve" deg="0" data-sw="1" data-grad="0" data-group="0" data-edit="1" filter="none" d="M58 55 C58 55 63.5 56 66.25 56.5 C69 57 74.5 57.5 77.25 57.75 C80 58 90 56 90 56 " data-centerx="74" data-centery="56.386"></path><path id="path78" visibility="visible" stroke="#B3B3B3" stroke-width="1" stroke-opacity="1" stroke-linecap="round" stroke-linejoin="round" stroke-dasharray="none" marker-start="none" marker-end="none" fill="none" fill-rule="evenodd" fill-opacity="1" data-name="curve" data-title="curve" deg="0" data-sw="1" data-grad="0" data-group="0" data-edit="1" filter="none" d="M66 57 C66 57 62.5 62 60.75 65 C59 68 57 73.5 56 76.25 C55 79 54 81 54 81 " data-centerx="60" data-centery="69"></path><path id="path79" visibility="visible" stroke="#B3B3B3" stroke-width="1" stroke-opacity="1" stroke-linecap="round" stroke-linejoin="round" stroke-dasharray="none" marker-start="none" marker-end="none" fill="none" fill-rule="evenodd" fill-opacity="1" data-name="curve" data-title="curve" deg="0" data-sw="1" data-grad="0" data-group="0" data-edit="1" filter="none" d="M56 55 C56 55 54 60 53 63 C52 66 49 71.5 47.5 74.25 C46 77 53 82 53 82 " data-centerx="51.645" data-centery="68.5"></path><path id="path86" visibility="visible" stroke="#B3B3B3" stroke-width="1" stroke-opacity="1" stroke-linecap="round" stroke-linejoin="round" stroke-dasharray="none" marker-start="none" marker-end="none" fill="none" fill-rule="evenodd" fill-opacity="1" data-name="curve" data-title="curve" deg="0" data-sw="1" data-grad="0" data-group="0" data-edit="1" filter="none" d="M55 74 C55 74 51 70 51 70 " data-centerx="53" data-centery="72"></path><path id="path87" visibility="visible" stroke="#B3B3B3" stroke-width="1" stroke-opacity="1" stroke-linecap="round" stroke-linejoin="round" stroke-dasharray="none" marker-start="none" marker-end="none" fill="none" fill-rule="evenodd" fill-opacity="1" data-name="curve" data-title="curve" deg="0" data-sw="1" data-grad="0" data-group="0" data-edit="1" filter="none" d="M58 68 C58 68 54 64 54 64 " data-centerx="56" data-centery="66"></path><path id="path88" visibility="visible" stroke="#B3B3B3" stroke-width="1" stroke-opacity="1" stroke-linecap="round" stroke-linejoin="round" stroke-dasharray="none" marker-start="none" marker-end="none" fill="none" fill-rule="evenodd" fill-opacity="1" data-name="curve" data-title="curve" deg="0" data-sw="1" data-grad="0" data-group="0" data-edit="1" filter="none" d="M61 60 C61 60 56 57 56 57 " data-centerx="58.5" data-centery="58.5"></path><path id="path89" visibility="visible" stroke="#B3B3B3" stroke-width="1" stroke-opacity="1" stroke-linecap="round" stroke-linejoin="round" stroke-dasharray="none" marker-start="none" marker-end="none" fill="none" fill-rule="evenodd" fill-opacity="1" data-name="curve" data-title="curve" deg="0" data-sw="1" data-grad="0" data-group="0" data-edit="1" filter="none" d="M65 55 C65 55 65 52 65 52 " data-centerx="65" data-centery="53.5"></path><path id="path91" visibility="visible" stroke="#B3B3B3" stroke-width="1" stroke-opacity="1" stroke-linecap="round" stroke-linejoin="round" stroke-dasharray="none" marker-start="none" marker-end="none" fill="none" fill-rule="evenodd" fill-opacity="1" data-name="curve" data-title="curve" deg="0" data-sw="1" data-grad="0" data-group="0" data-edit="1" filter="none" d="M75 56 C75 56 75 51 75 51 " data-centerx="75" data-centery="53.5"></path><path id="path92" visibility="visible" stroke="#B3B3B3" stroke-width="1" stroke-opacity="1" stroke-linecap="round" stroke-linejoin="round" stroke-dasharray="none" marker-start="none" marker-end="none" fill="none" fill-rule="evenodd" fill-opacity="1" data-name="curve" data-title="curve" deg="0" data-sw="1" data-grad="0" data-group="0" data-edit="1" filter="none" d="M83 55 C83 55 84 50 84 50 " data-centerx="83.5" data-centery="52.5"></path><g id="group94" visibility="visible" stroke="#000000" stroke-width="2" stroke-opacity="1" stroke-dasharray="none" fill="none" fill-opacity="1" data-name="group" data-title="text" deg="0" data-edit="1" data-centerx="106.867" data-centery="86"><text id="text95" visibility="visible" font-family="Verdana" font-size="18" font-weight="normal" font-style="normal" transform="matrix(1,0,0,1,-342,-124)" stroke="#CCCCCC" stroke-width="0" stroke-opacity="1" stroke-dasharray="none" fill="#B3B3B3" fill-opacity="1" data-name="text" data-title="text" deg="0" data-sw="0" data-group="group94" data-trans="translate(-570,-360) matrix(1,0,0,1,228,236)" data-edit="1" filter="url(#filter1)" x="409" y="217" data-centerx="-121.133" data-centery="-150">React.js!</text></g><path id="path108" visibility="visible" stroke="#B3B3B3" stroke-width="1" stroke-opacity="1" stroke-linecap="round" stroke-linejoin="round" stroke-dasharray="none" marker-start="none" marker-end="none" fill="none" fill-rule="evenodd" fill-opacity="1" data-name="curve" data-title="curve" deg="0" data-sw="1" data-grad="0" data-group="0" data-edit="1" filter="none" d="M74.8 39 C74.8 39 74.1 40 73.75 40.6 C73.4 41.2 72.3 41.5 71.75 41.65 C71.2 41.8 69.8 42 69.8 42 " data-centerx="72.3" data-centery="40.5"></path><path id="path109" visibility="visible" stroke="#B3B3B3" stroke-width="1" stroke-opacity="1" stroke-linecap="round" stroke-linejoin="round" stroke-dasharray="none" marker-start="none" marker-end="none" fill="none" fill-rule="evenodd" fill-opacity="1" data-name="curve" data-title="curve" deg="0" data-sw="1" data-grad="0" data-group="0" data-edit="1" filter="none" d="M74.4 39.4 C74.4 39.4 75.4 40.4 76 40.9 C76.6 41.4 77.6 41.6 78.2 41.7 C78.8 41.8 80 41.8 80 41.8 " data-centerx="77.2" data-centery="40.6"></path><path id="path111" visibility="visible" stroke="#B3B3B3" stroke-width="1" stroke-opacity="1" stroke-linecap="round" stroke-linejoin="round" stroke-dasharray="none" marker-start="none" marker-end="none" fill="none" fill-rule="evenodd" fill-opacity="1" data-name="curve" data-title="curve" deg="0" data-sw="1" data-grad="0" data-group="0" data-edit="1" filter="none" d="M71.4 41.8 C71.4 41.8 72.3 42.8 72.85 43.4 C73.4 44 74.5 44 75.05 44 C75.6 44 77 42 77 42 " data-centerx="74.2" data-centery="42.9"></path><path id="path112" visibility="visible" stroke="#B3B3B3" stroke-width="1" stroke-opacity="1" stroke-linecap="round" stroke-linejoin="round" stroke-dasharray="none" marker-start="none" marker-end="none" fill="none" fill-rule="evenodd" fill-opacity="1" data-name="curve" data-title="curve" deg="0" data-sw="1" data-grad="0" data-group="0" data-edit="1" filter="none" d="M70.8 41.8 C70.8 41.8 71.8 42.4 72.4 42.8 C73 43.2 74 43.5 74.6 43.65 C75.2 43.8 75.7 42.8 75.95 42.2 C76.2 41.6 75.1 40.9 74.55 40.55 C74 40.2 72.8 42 72.8 42 " data-centerx="73.393" data-centery="42.085"></path></g><g id="settings" visibility="hidden" data-dn0="primalDraw" data-dn1="#FAFAFA" data-dn2="#D2D2D2" data-dn3="18" data-dn4="#000000" data-dn5="#80FF00" data-dn6="1" data-dn7="1" data-dn8="2" data-dn9="round" data-dn10="round" data-dn11="none" data-dn12="none" data-dn13="none" data-dn14="evenodd" data-dn15="2" data-dn16="1" data-dn17="300" data-dn18="100" data-dn19="10" data-dn20="0" data-dn21="1" data-dn22="1" data-dn23="115" data-dn24="path114,path113,path102,path103,path100,path101,group0,group2,path5,path10,path11,path37,path38,path39,path40,path41,path43,path44,path45,path46,path47,path51,path52,path53,path54,path55,path56,path57,path59,path60,path61,path62,path75,path76,path77,path78,path79,path86,path87,path88,path89,path91,path92,group94,path108,path109,path111,path112" data-dn25="6" data-dn26="url(#linear0)" data-dn27="url(#linear1)" data-dn28="url(#radial0)" data-dn29="url(#radial1)" data-dn30="#FF8000" data-dn31="#FFFF00" data-dn32="#000000" data-dn33="1" data-dn34="2" data-dn35="10" data-dn36="" data-dn37="0" data-dn38="127"></g></svg>